# xmcd
#
# Track frame offsets:
#	150
#	13814
#	35373
#	51780
#	68167
#	84480
#	103383
#	116912
#	133500
#	149824
#	164369
#	177569
# Disc length: 2536 seconds
# Revision: 1
# Processed by: cddbd v1.5.2PL0 Copyright (c) Steve Scherf et al.
#
# Submitted via: libkcddb 0.31
#
DISCID=b409e60c
DTITLE=Só Sucessos do Pagode vol 1 - Só Sucessos do Pagode vol 1
DYEAR=1900
DGENRE=
TTITLE0=Um beijo
TTITLE1=Amor que nunca vi
TTITLE2=Jantar a luz de velas
TTITLE3=Para ser minha musa
TTITLE4=Caixa postal
TTITLE5=La vem o negão
TTITLE6=Machuca e da prazer
TTITLE7=Coisa boa demais
TTITLE8=Cinta lIga
TTITLE9=Malicia em seu olhar
TTITLE10=Musa da praia
TTITLE11=Não tem saida
EXTD=
EXTT0=Delcio Luis - Acyr Marques - Geraldão
EXTT1=Delcio Luis - Carliro Cavalcante
EXTT2=Delcio Luis - Andre Renato
EXTT3=Arlindo Cruz - Chiquinho - Marquinhos
EXTT4=Beto Coutinho - Herlon
EXTT5=Zelão
EXTT6=Ademir Fogaça
EXTT7=Alceu Maia - Sarah Benchimol
EXTT8=Netinho - Wagninho
EXTT9=Wagninho - Wagner Bastos
EXTT10=Wagninho - Wagner Bastos
EXTT11=Marcelo - Ivo - Marcio
PLAYORDER=
